<?xml version="1.0" encoding="UTF-8"?>
<svg width="256.12mm" height="180.18mm" version="1.1" viewBox="0 0 256.11667 180.18124" xmlns="http://www.w3.org/2000/svg" xmlns:cc="http://creativecommons.org/ns#" xmlns:dc="http://purl.org/dc/elements/1.1/" xmlns:rdf="http://www.w3.org/1999/02/22-rdf-syntax-ns#">
<metadata>
<rdf:RDF>
<cc:Work rdf:about="">
<dc:format>image/svg+xml</dc:format>
<dc:type rdf:resource="http://purl.org/dc/dcmitype/StillImage"/>
<dc:title/>
</cc:Work>
</rdf:RDF>
</metadata>
<g transform="translate(262.12 -52.91)">
<g transform="translate(-262.12 52.91)">
<g transform="translate(186.82 -1.6488)">
<path d="m-186.82 1.6488h256.12v180.18h-256.12z" fill="#383838"/>
<g transform="matrix(.9176 0 0 .9176 -165.81 -94.297)" stroke-width="1.0898">
<g transform="translate(-11.74 -4.2691)" stroke-width="1.0898">
<g stroke-width="1.0898">
<g stroke-width="1.0898">
<g stroke-width="1.0898">
<g stroke-width="1.0898">
<g>
<path d="m0 117.02v56.688l49.766-13.657 2.2451-43.217z" fill="#585858"/>
<path d="m49.766 160.05 16.277 84.751-66.416 23.386 0.37418-94.48z" fill="#535960"/>
<path d="m66.042 244.8 38.54 7.1094 15.154 45.65l-119.74-0.56128-0.37418-28.812z" fill="#56595c"/>
<path d="m104.58 251.91 23.76-44.901-78.577-46.959 16.277 84.751z" fill="#4f5a66"/>
<path d="m128.34 207.01 7.6706-90.551-84.003 0.37418-2.2451 43.217z" fill="#515a63"/>
<path d="m119.74 297.56h56.314l5.4256-49.204-76.893 3.5547z" fill="#525961"/>
<path d="m128.34 207.01 49.193-24.046 3.9406 65.392-76.893 3.5547z" fill="#4f5a67"/>
<path d="m133.09 148.57 44.45 34.396-49.193 24.046z" fill="#4c5b6b"/>
<path d="m133.09 148.57 2.928-32.109 61.366 0.35932-19.844 66.146z" fill="#515a63"/>
<path d="m177.54 182.96 79.11-15.081 0.0398-50.863-59.307-0.20195z" fill="#56595c"/>
<path d="m177.54 182.96 3.9406 65.392 75.699-7.9778-0.52917-72.496z" fill="#53575d"/>
<path d="m181.48 248.36-5.4256 49.204 80.635-0.56128 0.48933-56.621z" fill="#56595c"/>
</g>
<g>
<path d="m0 117.02v56.688l49.766-13.657 2.2451-43.217z" fill="#585858"/>
<path d="m49.766 160.05 16.277 84.751-66.416 23.386 0.37418-94.48z" fill="#535960"/>
<path d="m66.042 244.8 38.54 7.1094 15.154 45.65l-119.74-0.56128-0.37418-28.812z" fill="#56595c"/>
<path d="m104.58 251.91 23.76-44.901-78.577-46.959 16.277 84.751z" fill="#4f5a66"/>
<path d="m128.34 207.01 7.6706-90.551-84.003 0.37418-2.2451 43.217z" fill="#515a63"/>
<path d="m119.74 297.56h56.314l5.4256-49.204-76.893 3.5547z" fill="#525961"/>
<path d="m128.34 207.01 49.193-24.046 3.9406 65.392-76.893 3.5547z" fill="#4f5a67"/>
<path d="m133.09 148.57 44.45 34.396-49.193 24.046z" fill="#4c5b6b"/>
<path d="m133.09 148.57 2.928-32.109 61.366 0.35932-19.844 66.146z" fill="#515a63"/>
<path d="m177.54 182.96 79.11-15.081 0.0398-50.863-59.307-0.20195z" fill="#56595c"/>
<path d="m177.54 182.96 3.9406 65.392 75.699-7.9778-0.52917-72.496z" fill="#53575d"/>
<path d="m181.48 248.36-5.4256 49.204 80.635-0.56128 0.48933-56.621z" fill="#56595c"/>
</g>
<g>
<path d="m0 117.02v56.688l49.766-13.657 2.2451-43.217z" fill="#585858"/>
<path d="m49.766 160.05 16.277 84.751-66.416 23.386 0.37418-94.48z" fill="#535960"/>
<path d="m66.042 244.8 38.54 7.1094 15.154 45.65l-119.74-0.56128-0.37418-28.812z" fill="#56595c"/>
<path d="m104.58 251.91 23.76-44.901-78.577-46.959 16.277 84.751z" fill="#4f5a66"/>
<path d="m128.34 207.01 7.6706-90.551-84.003 0.37418-2.2451 43.217z" fill="#515a63"/>
<path d="m119.74 297.56h56.314l5.4256-49.204-76.893 3.5547z" fill="#525961"/>
<path d="m128.34 207.01 49.193-24.046 3.9406 65.392-76.893 3.5547z" fill="#4f5a67"/>
<path d="m133.09 148.57 44.45 34.396-49.193 24.046z" fill="#4c5b6b"/>
<path d="m133.09 148.57 2.928-32.109 61.366 0.35932-19.844 66.146z" fill="#515a63"/>
<path d="m177.54 182.96 79.11-15.081 0.0398-50.863-59.307-0.20195z" fill="#56595c"/>
<path d="m177.54 182.96 3.9406 65.392 75.699-7.9778-0.52917-72.496z" fill="#53575d"/>
<path d="m181.48 248.36-5.4256 49.204 80.635-0.56128 0.48933-56.621z" fill="#56595c"/>
</g>
<g stroke-width="1.0898">
<g>
<path d="m-11.157 108.83v64.432l60.922-13.211 3.1386-51.221z" fill="#585858"/>
<path d="m49.766 160.05 16.277 84.751-77.199 21.822v-93.363z" fill="#535960"/>
<path d="m66.042 244.8 38.54 7.1094 14.707 53.279h-130.45v-38.566z" fill="#56595c"/>
<path d="m104.58 251.91 23.76-44.901-78.577-46.959 16.277 84.751z" fill="#4f5a66"/>
<path d="m128.34 207.01 7.4473-98.18h-82.886l-3.1386 51.221z" fill="#515a63"/>
<path d="m119.29 305.19h55.644l6.5425-56.834-76.893 3.5547z" fill="#525961"/>
<path d="m128.34 207.01 49.193-24.046 3.9406 65.392-76.893 3.5547z" fill="#4f5a67"/>
<path d="m133.09 148.57 44.45 34.396-49.193 24.046z" fill="#4c5b6b"/>
<path d="m133.09 148.57 2.7047-39.739h60.919l-19.174 74.134z" fill="#515a63"/>
<path d="m177.54 182.96 90.422-15.751v-58.383h-71.249z" fill="#56595c"/>
<path d="m177.54 182.96 3.9406 65.392 86.482-8.4246v-72.719z" fill="#53575d"/>
<path d="m181.48 248.36-6.5425 56.834h93.024v-65.258z" fill="#56595c"/>
</g>
</g>
</g>
</g>
</g>
</g>
</g>
</g>
</g>
<g transform="translate(186.82 -118.47)" display="none" stroke-width="1.6198">
<g transform="matrix(.61737 0 0 .61737 -192.86 39.141)">
<path d="m-93.88 196.18h24.19l0.37797-29.482z" fill="#a33246"/>
<path d="m-93.88 196.18 3.0238-57.452 21.545 27.97z" fill="#892b3c"/>
<path d="m-90.856 138.73 2.2679-36.664 20.789 23.812-1.5119 40.821z" fill="#8e2b3e"/>
<path d="m-69.689 196.18h27.214v-32.128z" fill="#c95a73"/>
<path d="m-42.475 164.05-26.836 2.6458-0.37797 29.482z" fill="#c04b65"/>
<path d="m-69.311 166.7 1.5119-40.821 25.324 38.176z" fill="#ba465d"/>
<path d="m-42.475 164.05 3.5725-60.456-28.897 22.28z" fill="#ca4d64"/>
<path d="m-88.588 102.06 22.157-1.6752-1.3681 25.488z" fill="#8f2c3e"/>
<path d="m-66.431 100.39 27.529 3.2072-28.897 22.28z" fill="#b8455d"/>
<path d="m-87.145 83.683-1.4434 18.38 22.157-1.6752-5.0781-12.294-6.0136-0.80181z" fill="#aba2b6"/>
<path d="m-71.509 88.093 11.359 0.80181 7.6172-1.0691 3.3409 14.366-17.239-1.8041z" fill="#b2abc1"/>
<path d="m-49.192 102.19 10.29 1.4032 0.46773-17.907-11.827 2.4722-2.2718-0.33408z" fill="#ccbfd0"/>
<path d="m-87.145 83.683 0.66817-2.0713 9.5549-2.6059 7.2831-0.53454-1.8709 9.6217-6.0136-0.80181z" fill="#c4b1c3"/>
<path d="m-71.509 88.093 11.359 0.80181 7.6172-1.0691s-0.24161-8.4417-0.61958-8.4417c-0.37798 0-16.486-0.91275-16.486-0.91275z" fill="#cab5c7"/>
<path d="m-52.533 87.825 2.2718 0.33408 11.827-2.4722-0.26047-2.0513-6.9926-3.1183-7.465-1.2284z" fill="#e0d4e4"/>
<path d="m-79.611 79.667 1.2284-8.5045 7.0871-1.3229 1.6572 8.6312z" fill="#d5bed0"/>
<path d="m-69.639 78.471 11.477 0.62927 5.8586-7.843-5.9531-1.0394-7.7485-0.28348-5.2917-0.0945z" fill="#d8bfd2"/>
<path d="m-58.161 79.1 5.0082 0.18899 7.465 1.2284 0.75596-6.2366-7.3705-3.0238z" fill="#e7d7e4"/>
<path d="m-66.097 70.052 2.0045-6.949 7.1495 1.5368 0.0668 5.9468z" fill="#b2b2cf"/>
<path d="m-64.093 63.103 1.6036-9.6885 6.0804 3.3409-0.53454 7.8844z" fill="#babdd4"/>
<path d="m-56.409 56.755 0.13363-9.154-4.9445-1.2027-1.2695 7.0158z" fill="#c1cee4"/>
<path d="m-93.88 196.18h24.19l0.37797-29.482z" fill="#a33246"/>
<path d="m-93.88 196.18 3.0238-57.452 21.545 27.97z" fill="#892b3c"/>
<path d="m-90.856 138.73 2.2679-36.664 20.789 23.812-1.5119 40.821z" fill="#8e2b3e"/>
<path d="m-69.689 196.18h27.214v-32.128z" fill="#c95a73"/>
<path d="m-42.475 164.05-26.836 2.6458-0.37797 29.482z" fill="#c04b65"/>
<path d="m-69.311 166.7 1.5119-40.821 25.324 38.176z" fill="#ba465d"/>
<path d="m-42.475 164.05 3.5725-60.456-28.897 22.28z" fill="#ca4d64"/>
<path d="m-88.588 102.06 22.157-1.6752-1.3681 25.488z" fill="#8f2c3e"/>
<path d="m-66.431 100.39 27.529 3.2072-28.897 22.28z" fill="#b8455d"/>
<path d="m-87.145 83.683-1.4434 18.38 22.157-1.6752-5.0781-12.294-6.0136-0.80181z" fill="#aba2b6"/>
<path d="m-71.509 88.093 11.359 0.80181 7.6172-1.0691 3.3409 14.366-17.239-1.8041z" fill="#b2abc1"/>
<path d="m-49.192 102.19 10.29 1.4032 0.46773-17.907-11.827 2.4722-2.2718-0.33408z" fill="#ccbfd0"/>
<path d="m-87.145 83.683 0.66817-2.0713 9.5549-2.6059 7.2831-0.53454-1.8709 9.6217-6.0136-0.80181z" fill="#c4b1c3"/>
<path d="m-71.509 88.093 11.359 0.80181 7.6172-1.0691s-0.24161-8.4417-0.61958-8.4417c-0.37798 0-16.486-0.91275-16.486-0.91275z" fill="#cab5c7"/>
<path d="m-52.533 87.825 2.2718 0.33408 11.827-2.4722-0.26047-2.0513-6.9926-3.1183-7.465-1.2284z" fill="#e0d4e4"/>
<path d="m-79.611 79.667 1.2284-8.5045 7.0871-1.3229 1.6572 8.6312z" fill="#d5bed0"/>
<path d="m-69.639 78.471 11.477 0.62927 5.8586-7.843-5.9531-1.0394-7.7485-0.28348-5.2917-0.0945z" fill="#d8bfd2"/>
<path d="m-58.161 79.1 5.0082 0.18899 7.465 1.2284 0.75596-6.2366-7.3705-3.0238z" fill="#e7d7e4"/>
<path d="m-66.097 70.052 2.0045-6.949 7.1495 1.5368 0.0668 5.9468z" fill="#b2b2cf"/>
<path d="m-64.093 63.103 1.6036-9.6885 6.0804 3.3409-0.53454 7.8844z" fill="#babdd4"/>
<path d="m-56.409 56.755 0.13363-9.154-4.9445-1.2027-1.2695 7.0158z" fill="#c1cee4"/>
<path d="m-93.88 196.18h24.19l0.37797-29.482z" fill="#a33246"/>
<path d="m-93.88 196.18 3.0238-57.452 21.545 27.97z" fill="#892b3c"/>
<path d="m-90.856 138.73 2.2679-36.664 20.789 23.812-1.5119 40.821z" fill="#8e2b3e"/>
<path d="m-69.689 196.18h27.214v-32.128z" fill="#c95a73"/>
<path d="m-42.475 164.05-26.836 2.6458-0.37797 29.482z" fill="#c04b65"/>
<path d="m-69.311 166.7 1.5119-40.821 25.324 38.176z" fill="#ba465d"/>
<path d="m-42.475 164.05 3.5725-60.456-28.897 22.28z" fill="#ca4d64"/>
<path d="m-88.588 102.06 22.157-1.6752-1.3681 25.488z" fill="#8f2c3e"/>
<path d="m-66.431 100.39 27.529 3.2072-28.897 22.28z" fill="#b8455d"/>
<path d="m-87.145 83.683-1.4434 18.38 22.157-1.6752-5.0781-12.294-6.0136-0.80181z" fill="#aba2b6"/>
<path d="m-71.509 88.093 11.359 0.80181 7.6172-1.0691 3.3409 14.366-17.239-1.8041z" fill="#b2abc1"/>
<path d="m-49.192 102.19 10.29 1.4032 0.46773-17.907-11.827 2.4722-2.2718-0.33408z" fill="#ccbfd0"/>
<path d="m-87.145 83.683 0.66817-2.0713 9.5549-2.6059 7.2831-0.53454-1.8709 9.6217-6.0136-0.80181z" fill="#c4b1c3"/>
<path d="m-71.509 88.093 11.359 0.80181 7.6172-1.0691s-0.24161-8.4417-0.61958-8.4417c-0.37798 0-16.486-0.91275-16.486-0.91275z" fill="#cab5c7"/>
<path d="m-52.533 87.825 2.2718 0.33408 11.827-2.4722-0.26047-2.0513-6.9926-3.1183-7.465-1.2284z" fill="#e0d4e4"/>
<path d="m-79.611 79.667 1.2284-8.5045 7.0871-1.3229 1.6572 8.6312z" fill="#d5bed0"/>
<path d="m-69.639 78.471 11.477 0.62927 5.8586-7.843-5.9531-1.0394-7.7485-0.28348-5.2917-0.0945z" fill="#d8bfd2"/>
<path d="m-58.161 79.1 5.0082 0.18899 7.465 1.2284 0.75596-6.2366-7.3705-3.0238z" fill="#e7d7e4"/>
<path d="m-66.097 70.052 2.0045-6.949 7.1495 1.5368 0.0668 5.9468z" fill="#b2b2cf"/>
<path d="m-64.093 63.103 1.6036-9.6885 6.0804 3.3409-0.53454 7.8844z" fill="#babdd4"/>
<path d="m-56.409 56.755 0.13363-9.154-4.9445-1.2027-1.2695 7.0158z" fill="#c1cee4"/>
</g>
<g transform="matrix(.61737 0 0 .61737 -195.6 38.351)">
<path d="m-29.949 165.47-0.26727 31.805h28.464z" fill="#b05038"/>
<path d="m-1.7521 197.27 20.179-0.13364 0.93544-28.063z" fill="#e37c5b"/>
<path d="m-1.7521 197.27-8.0181-44.367-19.644-6.6817-0.53454 19.243z" fill="#b04f31"/>
<path d="m-1.7521 197.27 21.114-28.197 0.26727-21.649-29.4 5.479z" fill="#d26e4e"/>
<path d="m-9.7702 152.91 10.557-30.87 18.842 25.391z" fill="#de7e60"/>
<path d="m-9.7702 152.91c-2.8063-0.13363-19.644-6.6817-19.644-6.6817l1.0691-24.455 29.132 0.26726z" fill="#b24e2e"/>
<path d="m-28.345 121.77 0.40091-18.709 26.994-1.47 1.7372 20.446z" fill="#ab4829"/>
<path d="m-0.9503 101.59 20.713 2.4054-0.13363 43.431-18.842-25.391z" fill="#e3764e"/>
<path d="m-27.945 103.06 0.66817-18.041 13.23 3.3409 9.889 1.8709 3.2072 11.359z" fill="#d5a292"/>
<path d="m-4.1575 90.231 17.506 0.40091-0.26727 12.829-14.032-1.8709z" fill="#dda794"/>
<path d="m19.763 104 0.93545-18.575-7.3499 5.2118-0.26727 12.829z" fill="#ecb8a0"/>
<path d="m-27.276 85.019 2.8063-2.5391 13.898-2.0045 6.4145 9.7553-16.17-3.0736z" fill="#e4a992"/>
<path d="m-10.572 80.475 12.027 0.13364 10.29 1.3364-15.903 8.2854z" fill="#f7c0b5"/>
<path d="m-4.1575 90.231 17.506 0.40091 7.3499-5.2118-8.9535-3.4745z" fill="#efafa0"/>
<path d="m-19.392 82.346 0.40091-7.2163 2.8063-2.1382 9.7553-1.47-4.1427 8.9535z" fill="#e9c1b8"/>
<path d="m-10.572 80.475 4.1427-8.9535 8.2854 0.40091 9.889 10.023-10.29-1.3364z" fill="#eecac2"/>
<path d="m11.745 81.945l2.0045-5.8799-6.0136-2.6727-5.8799-1.47z" fill="#f7dcd4"/>
<path d="m1.856 71.923-1.47-11.225-6.8154 10.824z" fill="#dba693"/>
<path d="m-6.4293 71.522 0.53454-19.377 6.2808 8.5526z" fill="#c7a596"/>
<path d="m0.38604 60.697-0.8018-9.2208-5.479 0.66817z" fill="#e1a98f"/>
<path d="m-29.949 165.47-0.26727 31.805h28.464z" fill="#b05038"/>
<path d="m-1.7521 197.27 20.179-0.13364 0.93544-28.063z" fill="#e37c5b"/>
<path d="m-1.7521 197.27-8.0181-44.367-19.644-6.6817-0.53454 19.243z" fill="#b04f31"/>
<path d="m-1.7521 197.27 21.114-28.197 0.26727-21.649-29.4 5.479z" fill="#d26e4e"/>
<path d="m-9.7702 152.91 10.557-30.87 18.842 25.391z" fill="#de7e60"/>
<path d="m-9.7702 152.91c-2.8063-0.13363-19.644-6.6817-19.644-6.6817l1.0691-24.455 29.132 0.26726z" fill="#b24e2e"/>
<path d="m-28.345 121.77 0.40091-18.709 26.994-1.47 1.7372 20.446z" fill="#ab4829"/>
<path d="m-0.9503 101.59 20.713 2.4054-0.13363 43.431-18.842-25.391z" fill="#e3764e"/>
<path d="m-27.945 103.06 0.66817-18.041 13.23 3.3409 9.889 1.8709 3.2072 11.359z" fill="#d5a292"/>
<path d="m-4.1575 90.231 17.506 0.40091-0.26727 12.829-14.032-1.8709z" fill="#dda794"/>
<path d="m19.763 104 0.93545-18.575-7.3499 5.2118-0.26727 12.829z" fill="#ecb8a0"/>
<path d="m-27.276 85.019 2.8063-2.5391 13.898-2.0045 6.4145 9.7553-16.17-3.0736z" fill="#e4a992"/>
<path d="m-10.572 80.475 12.027 0.13364 10.29 1.3364-15.903 8.2854z" fill="#f7c0b5"/>
<path d="m-4.1575 90.231 17.506 0.40091 7.3499-5.2118-8.9535-3.4745z" fill="#efafa0"/>
<path d="m-19.392 82.346 0.40091-7.2163 2.8063-2.1382 9.7553-1.47-4.1427 8.9535z" fill="#e9c1b8"/>
<path d="m-10.572 80.475 4.1427-8.9535 8.2854 0.40091 9.889 10.023-10.29-1.3364z" fill="#eecac2"/>
<path d="m11.745 81.945l2.0045-5.8799-6.0136-2.6727-5.8799-1.47z" fill="#f7dcd4"/>
<path d="m1.856 71.923-1.47-11.225-6.8154 10.824z" fill="#dba693"/>
<path d="m-6.4293 71.522 0.53454-19.377 6.2808 8.5526z" fill="#c7a596"/>
<path d="m0.38604 60.697-0.8018-9.2208-5.479 0.66817z" fill="#e1a98f"/>
<path d="m-29.949 165.47-0.26727 31.805h28.464z" fill="#b05038"/>
<path d="m-1.7521 197.27 20.179-0.13364 0.93544-28.063z" fill="#e37c5b"/>
<path d="m-1.7521 197.27-8.0181-44.367-19.644-6.6817-0.53454 19.243z" fill="#b04f31"/>
<path d="m-1.7521 197.27 21.114-28.197 0.26727-21.649-29.4 5.479z" fill="#d26e4e"/>
<path d="m-9.7702 152.91 10.557-30.87 18.842 25.391z" fill="#de7e60"/>
<path d="m-9.7702 152.91c-2.8063-0.13363-19.644-6.6817-19.644-6.6817l1.0691-24.455 29.132 0.26726z" fill="#b24e2e"/>
<path d="m-28.345 121.77 0.40091-18.709 26.994-1.47 1.7372 20.446z" fill="#ab4829"/>
<path d="m-0.9503 101.59 20.713 2.4054-0.13363 43.431-18.842-25.391z" fill="#e3764e"/>
<path d="m-27.945 103.06 0.66817-18.041 13.23 3.3409 9.889 1.8709 3.2072 11.359z" fill="#d5a292"/>
<path d="m-4.1575 90.231 17.506 0.40091-0.26727 12.829-14.032-1.8709z" fill="#dda794"/>
<path d="m19.763 104 0.93545-18.575-7.3499 5.2118-0.26727 12.829z" fill="#ecb8a0"/>
<path d="m-27.276 85.019 2.8063-2.5391 13.898-2.0045 6.4145 9.7553-16.17-3.0736z" fill="#e4a992"/>
<path d="m-10.572 80.475 12.027 0.13364 10.29 1.3364-15.903 8.2854z" fill="#f7c0b5"/>
<path d="m-4.1575 90.231 17.506 0.40091 7.3499-5.2118-8.9535-3.4745z" fill="#efafa0"/>
<path d="m-19.392 82.346 0.40091-7.2163 2.8063-2.1382 9.7553-1.47-4.1427 8.9535z" fill="#e9c1b8"/>
<path d="m-10.572 80.475 4.1427-8.9535 8.2854 0.40091 9.889 10.023-10.29-1.3364z" fill="#eecac2"/>
<path d="m11.745 81.945l2.0045-5.8799-6.0136-2.6727-5.8799-1.47z" fill="#f7dcd4"/>
<path d="m1.856 71.923-1.47-11.225-6.8154 10.824z" fill="#dba693"/>
<path d="m-6.4293 71.522 0.53454-19.377 6.2808 8.5526z" fill="#c7a596"/>
<path d="m0.38604 60.697-0.8018-9.2208-5.479 0.66817z" fill="#e1a98f"/>
</g>
<g transform="matrix(.61737 0 0 .61737 -196.05 38.127)">
<path d="m26.846 197.14 25.925 0.26727-6.1472-32.34-19.778 6.949z" fill="#b48227"/>
<path d="m26.846 172.02 1.3364-34.478 18.442 27.529z" fill="#b87b22"/>
<path d="m28.182 137.54 1.0691-32.34s17.373 17.64 17.907 18.709c0.53454 1.0691-0.53454 41.16-0.53454 41.16z" fill="#af7d24"/>
<path d="m29.251 105.2 23.787-1.8709 22.451 18.174-28.598 2.1382z" fill="#ad8526"/>
<path d="m53.038 103.33 23.52 1.0691-1.0691 17.105z" fill="#ceb144"/>
<path d="m46.624 165.07 28.865-14.7v-28.865l-28.598 2.1382z" fill="#c9a33f"/>
<path d="m52.771 197.41 22.985-0.53454-0.26727-46.505-28.865 14.7z" fill="#cfac4d"/>
<path d="m29.251 105.2 0.27824-18.822 6.8036 4.5357 7.9375 0.94494z" fill="#dfc68a"/>
<path d="m29.251 105.2 23.787-1.8709-8.7677-11.47z" fill="#ccbd7e"/>
<path d="m44.27 91.857 15.497 0.94495 10.394-2.6458 6.396 14.24-23.52-1.0691z" fill="#c7c18d"/>
<path d="m76.558 104.4-0.5374-16.697-5.8586 2.4568z" fill="#dddc97"/>
<path d="m29.529 86.376 7.1815-2.8348 13.04-0.37798-5.4807 8.6934-7.9375-0.94494z" fill="#e0cb7b"/>
<path d="m44.27 91.857 15.497 0.94495 4.9137-9.2604-14.93-0.37798z" fill="#decd6d"/>
<path d="m59.767 92.802 10.394-2.6458 5.8586-2.4568-5.2917-3.5908-6.0476-0.56696z" fill="#ebe2a1"/>
<path d="m36.711 83.541 0.94494-7.5595 12.284-1.7009-0.18898 8.8824z" fill="#eae3ae"/>
<path d="m49.94 74.281 10.583 0.56696 4.1577 8.6935-14.93-0.37798z" fill="#ede3a3"/>
<path d="m60.523 74.848 8.1265 2.0789 2.0789 7.1815-6.0476-0.56696z" fill="#f0eec8"/>
<path d="m49.94 74.281 0.56697-10.394 7.0747 10.709z" fill="#c7c57b"/>
<path d="m57.582 74.595-1.2695-18.375-5.3454-0.86863-0.45974 8.5345z" fill="#cacf8d"/>
<path d="m26.846 197.14 25.925 0.26727-6.1472-32.34-19.778 6.949z" fill="#b48227"/>
<path d="m26.846 172.02 1.3364-34.478 18.442 27.529z" fill="#b87b22"/>
<path d="m28.182 137.54 1.0691-32.34s17.373 17.64 17.907 18.709c0.53454 1.0691-0.53454 41.16-0.53454 41.16z" fill="#af7d24"/>
<path d="m29.251 105.2 23.787-1.8709 22.451 18.174-28.598 2.1382z" fill="#ad8526"/>
<path d="m53.038 103.33 23.52 1.0691-1.0691 17.105z" fill="#ceb144"/>
<path d="m46.624 165.07 28.865-14.7v-28.865l-28.598 2.1382z" fill="#c9a33f"/>
<path d="m52.771 197.41 22.985-0.53454-0.26727-46.505-28.865 14.7z" fill="#cfac4d"/>
<path d="m29.251 105.2 0.27824-18.822 6.8036 4.5357 7.9375 0.94494z" fill="#dfc68a"/>
<path d="m29.251 105.2 23.787-1.8709-8.7677-11.47z" fill="#ccbd7e"/>
<path d="m44.27 91.857 15.497 0.94495 10.394-2.6458 6.396 14.24-23.52-1.0691z" fill="#c7c18d"/>
<path d="m76.558 104.4-0.5374-16.697-5.8586 2.4568z" fill="#dddc97"/>
<path d="m29.529 86.376 7.1815-2.8348 13.04-0.37798-5.4807 8.6934-7.9375-0.94494z" fill="#e0cb7b"/>
<path d="m44.27 91.857 15.497 0.94495 4.9137-9.2604-14.93-0.37798z" fill="#decd6d"/>
<path d="m59.767 92.802 10.394-2.6458 5.8586-2.4568-5.2917-3.5908-6.0476-0.56696z" fill="#ebe2a1"/>
<path d="m36.711 83.541 0.94494-7.5595 12.284-1.7009-0.18898 8.8824z" fill="#eae3ae"/>
<path d="m49.94 74.281 10.583 0.56696 4.1577 8.6935-14.93-0.37798z" fill="#ede3a3"/>
<path d="m60.523 74.848 8.1265 2.0789 2.0789 7.1815-6.0476-0.56696z" fill="#f0eec8"/>
<path d="m49.94 74.281 0.56697-10.394 7.0747 10.709z" fill="#c7c57b"/>
<path d="m57.582 74.595-1.2695-18.375-5.3454-0.86863-0.45974 8.5345z" fill="#cacf8d"/>
<path d="m26.846 197.14 25.925 0.26727-6.1472-32.34-19.778 6.949z" fill="#b48227"/>
<path d="m26.846 172.02 1.3364-34.478 18.442 27.529z" fill="#b87b22"/>
<path d="m28.182 137.54 1.0691-32.34s17.373 17.64 17.907 18.709c0.53454 1.0691-0.53454 41.16-0.53454 41.16z" fill="#af7d24"/>
<path d="m29.251 105.2 23.787-1.8709 22.451 18.174-28.598 2.1382z" fill="#ad8526"/>
<path d="m53.038 103.33 23.52 1.0691-1.0691 17.105z" fill="#ceb144"/>
<path d="m46.624 165.07 28.865-14.7v-28.865l-28.598 2.1382z" fill="#c9a33f"/>
<path d="m52.771 197.41 22.985-0.53454-0.26727-46.505-28.865 14.7z" fill="#cfac4d"/>
<path d="m29.251 105.2 0.27824-18.822 6.8036 4.5357 7.9375 0.94494z" fill="#dfc68a"/>
<path d="m29.251 105.2 23.787-1.8709-8.7677-11.47z" fill="#ccbd7e"/>
<path d="m44.27 91.857 15.497 0.94495 10.394-2.6458 6.396 14.24-23.52-1.0691z" fill="#c7c18d"/>
<path d="m76.558 104.4-0.5374-16.697-5.8586 2.4568z" fill="#dddc97"/>
<path d="m29.529 86.376 7.1815-2.8348 13.04-0.37798-5.4807 8.6934-7.9375-0.94494z" fill="#e0cb7b"/>
<path d="m44.27 91.857 15.497 0.94495 4.9137-9.2604-14.93-0.37798z" fill="#decd6d"/>
<path d="m59.767 92.802 10.394-2.6458 5.8586-2.4568-5.2917-3.5908-6.0476-0.56696z" fill="#ebe2a1"/>
<path d="m36.711 83.541 0.94494-7.5595 12.284-1.7009-0.18898 8.8824z" fill="#eae3ae"/>
<path d="m49.94 74.281 10.583 0.56696 4.1577 8.6935-14.93-0.37798z" fill="#ede3a3"/>
<path d="m60.523 74.848 8.1265 2.0789 2.0789 7.1815-6.0476-0.56696z" fill="#f0eec8"/>
<path d="m49.94 74.281 0.56697-10.394 7.0747 10.709z" fill="#c7c57b"/>
<path d="m57.582 74.595-1.2695-18.375-5.3454-0.86863-0.45974 8.5345z" fill="#cacf8d"/>
</g>
<g transform="matrix(.61737 0 0 .61737 -196.72 38.575)">
<path d="m80.178 197.31 0.18899-36.853 11.339 36.475z" fill="#437d3b"/>
<path d="m80.367 160.46 0.18899-50.082 10.016-1.3229z" fill="#437e3c"/>
<path d="m91.706 196.93-1.1339-87.879-10.205 51.405z" fill="#46823e"/>
<path d="m91.706 196.93h20.222l0.94494-30.049-21.923-2.4568z" fill="#3a855d"/>
<path d="m90.951 164.43 15.686-35.908 20.033-17.954 0.18898 22.112z" fill="#6bb798"/>
<path d="m90.951 164.43 15.686-35.908-16.064-19.466z" fill="#6eb99a"/>
<path d="m90.573 109.05 36.097 1.5119-20.033 17.954z" fill="#43936a"/>
<path d="m90.951 164.43 35.908-31.75 0.56697 34.963-14.552-0.75595z" fill="#70b999"/>
<path d="m111.93 196.93 15.497-29.293 0.18899 28.726z" fill="#6bb698"/>
<path d="m111.93 196.93 0.94494-30.049 14.552 0.75595z" fill="#6cb695"/>
<path d="m80.556 110.38-0.37798-21.356 10.961 3.7798-0.56696 16.253z" fill="#adcfb7"/>
<path d="m90.573 109.05 20.033-15.497 16.064 17.009z" fill="#93c5bb"/>
<path d="m90.573 109.05 0.56696-16.253 19.466 0.75595z" fill="#93c2bb"/>
<path d="m126.67 110.57-0.56697-16.631-0.18899-5.8586-15.308 5.4807z" fill="#addbdb"/>
<path d="m80.178 89.022 13.418-4.3467h11.339l5.6696 8.8824-19.466-0.75595z" fill="#9dd0bc"/>
<path d="m110.61 93.558 15.308-5.4807-8.1265-3.2128-12.851-0.18899z" fill="#bedcda"/>
<path d="m119.58 85.715-1.2284-7.654-8.5045-1.9844 0.85044 8.6934 7.0871 0.0945z" fill="#c0f0dd"/>
<path d="m110.7 84.77h-14.363l-2.3624-8.032 15.875-0.66146z" fill="#a8e0c5"/>
<path d="m93.974 76.738-6.4256 2.2678-0.18899 7.0871 0.18899 0.94494 6.0476-2.3624 2.7403 0.0945z" fill="#a3dabc"/>
<path d="m98.541 76.667 1.2695-10.557 6.8822 5.0113 0.0668 5.3454z" fill="#8ccbae"/>
<path d="m106.69 71.121-1.0023-13.497-5.0781 0.13364-0.80181 8.3522z" fill="#a1d6bc"/>
<path d="m80.178 197.31 0.18899-36.853 11.339 36.475z" fill="#437d3b"/>
<path d="m80.367 160.46 0.18899-50.082 10.016-1.3229z" fill="#437e3c"/>
<path d="m91.706 196.93-1.1339-87.879-10.205 51.405z" fill="#46823e"/>
<path d="m91.706 196.93h20.222l0.94494-30.049-21.923-2.4568z" fill="#3a855d"/>
<path d="m90.951 164.43 15.686-35.908 20.033-17.954 0.18898 22.112z" fill="#6bb798"/>
<path d="m90.951 164.43 15.686-35.908-16.064-19.466z" fill="#6eb99a"/>
<path d="m90.573 109.05 36.097 1.5119-20.033 17.954z" fill="#43936a"/>
<path d="m90.951 164.43 35.908-31.75 0.56697 34.963-14.552-0.75595z" fill="#70b999"/>
<path d="m111.93 196.93 15.497-29.293 0.18899 28.726z" fill="#6bb698"/>
<path d="m111.93 196.93 0.94494-30.049 14.552 0.75595z" fill="#6cb695"/>
<path d="m80.556 110.38-0.37798-21.356 10.961 3.7798-0.56696 16.253z" fill="#adcfb7"/>
<path d="m90.573 109.05 20.033-15.497 16.064 17.009z" fill="#93c5bb"/>
<path d="m90.573 109.05 0.56696-16.253 19.466 0.75595z" fill="#93c2bb"/>
<path d="m126.67 110.57-0.56697-16.631-0.18899-5.8586-15.308 5.4807z" fill="#addbdb"/>
<path d="m80.178 89.022 13.418-4.3467h11.339l5.6696 8.8824-19.466-0.75595z" fill="#9dd0bc"/>
<path d="m110.61 93.558 15.308-5.4807-8.1265-3.2128-12.851-0.18899z" fill="#bedcda"/>
<path d="m119.58 85.715-1.2284-7.654-8.5045-1.9844 0.85044 8.6934 7.0871 0.0945z" fill="#c0f0dd"/>
<path d="m110.7 84.77h-14.363l-2.3624-8.032 15.875-0.66146z" fill="#a8e0c5"/>
<path d="m93.974 76.738-6.4256 2.2678-0.18899 7.0871 0.18899 0.94494 6.0476-2.3624 2.7403 0.0945z" fill="#a3dabc"/>
<path d="m98.541 76.667 1.2695-10.557 6.8822 5.0113 0.0668 5.3454z" fill="#8ccbae"/>
<path d="m106.69 71.121-1.0023-13.497-5.0781 0.13364-0.80181 8.3522z" fill="#a1d6bc"/>
<path d="m80.178 197.31 0.18899-36.853 11.339 36.475z" fill="#437d3b"/>
<path d="m80.367 160.46 0.18899-50.082 10.016-1.3229z" fill="#437e3c"/>
<path d="m91.706 196.93-1.1339-87.879-10.205 51.405z" fill="#46823e"/>
<path d="m91.706 196.93h20.222l0.94494-30.049-21.923-2.4568z" fill="#3a855d"/>
<path d="m90.951 164.43 15.686-35.908 20.033-17.954 0.18898 22.112z" fill="#6bb798"/>
<path d="m90.951 164.43 15.686-35.908-16.064-19.466z" fill="#6eb99a"/>
<path d="m90.573 109.05 36.097 1.5119-20.033 17.954z" fill="#43936a"/>
<path d="m90.951 164.43 35.908-31.75 0.56697 34.963-14.552-0.75595z" fill="#70b999"/>
<path d="m111.93 196.93 15.497-29.293 0.18899 28.726z" fill="#6bb698"/>
<path d="m111.93 196.93 0.94494-30.049 14.552 0.75595z" fill="#6cb695"/>
<path d="m80.556 110.38-0.37798-21.356 10.961 3.7798-0.56696 16.253z" fill="#adcfb7"/>
<path d="m90.573 109.05 20.033-15.497 16.064 17.009z" fill="#93c5bb"/>
<path d="m90.573 109.05 0.56696-16.253 19.466 0.75595z" fill="#93c2bb"/>
<path d="m126.67 110.57-0.56697-16.631-0.18899-5.8586-15.308 5.4807z" fill="#addbdb"/>
<path d="m80.178 89.022 13.418-4.3467h11.339l5.6696 8.8824-19.466-0.75595z" fill="#9dd0bc"/>
<path d="m110.61 93.558 15.308-5.4807-8.1265-3.2128-12.851-0.18899z" fill="#bedcda"/>
<path d="m119.58 85.715-1.2284-7.654-8.5045-1.9844 0.85044 8.6934 7.0871 0.0945z" fill="#c0f0dd"/>
<path d="m110.7 84.77h-14.363l-2.3624-8.032 15.875-0.66146z" fill="#a8e0c5"/>
<path d="m93.974 76.738-6.4256 2.2678-0.18899 7.0871 0.18899 0.94494 6.0476-2.3624 2.7403 0.0945z" fill="#a3dabc"/>
<path d="m98.541 76.667 1.2695-10.557 6.8822 5.0113 0.0668 5.3454z" fill="#8ccbae"/>
<path d="m106.69 71.121-1.0023-13.497-5.0781 0.13364-0.80181 8.3522z" fill="#a1d6bc"/>
</g>
<g transform="matrix(.61737 0 0 .61737 -197.84 39.023)">
<path d="m172.97 197.12 9.2604 0.18899-1.3229-47.625-14.174 11.717z" fill="#55abd0"/>
<path d="m135.74 197.12 8.6935-18.899-10.583-17.576z" fill="#277e92"/>
<path d="m135.74 197.12 8.8824-0.18898-0.18898-18.71z" fill="#207792"/>
<path d="m144.43 178.22-0.94494-51.405-9.6384 33.829z" fill="#227a8e"/>
<path d="m133.85 160.65v-53.106l9.6384 19.277z" fill="#20798b"/>
<path d="m133.85 107.54 8.8824-1.3229 0.75596 20.6z" fill="#409bb4"/>
<path d="m144.62 196.93 22.112-35.53-23.246-34.585z" fill="#287b99"/>
<path d="m144.62 196.93 28.348 0.18898-6.2366-35.719z" fill="#3a96ba"/>
<path d="m180.91 149.69-0.75596-21.734-36.664-1.1339 23.246 34.585z" fill="#58afd4"/>
<path d="m143.49 126.82-0.75596-20.6 21.923-0.94494 7.1816 22.49z" fill="#3089ac"/>
<path d="m180.15 127.95-0.75595-20.789-14.741-1.8899 7.1816 22.49z" fill="#5babcf"/>
<path d="m133.85 107.54-0.18899-16.631 8.5045 2.6458 10.394 1.7009-9.8274 10.961z" fill="#8abfde"/>
<path d="m142.73 106.22 21.923-0.94494 5.1027-11.339-8.1265 1.3229h-9.0714z" fill="#88bfe0"/>
<path d="m164.66 105.27 14.741 1.8899-0.18899-16.82-4.7247 2.4568-4.7247 1.1339z" fill="#b1d9f7"/>
<path d="m133.66 90.912 6.4256-3.3073 7.3705-0.66146 7.3705-0.66146-2.2679 8.9769-10.394-1.7009z" fill="#87c3e0"/>
<path d="m154.83 86.282 14.552 0.66146 9.8274 3.4018-4.7247 2.4568-4.7247 1.1339-8.1265 1.3229h-9.0714z" fill="#abd8f3"/>
<path d="m140.28 88.077 0.47247-6.6146 5.1027-2.1734-0.56697 5.1027z" fill="#c0e1f3"/>
<path d="m140.28 88.077 5.0082-3.6853 11.528-1.5119-1.7954 3.8742-12.095 0.75596z" fill="#addaef"/>
<path d="m156.81 82.88 13.324-2.6458 1.5119 0.94494 0.75595 6.8981-3.0238-1.1339-14.363-0.18899l1.7954-3.8742z" fill="#c4e9fe"/>
<path d="m145.85 79.289 8.3155-1.1339h4.4412l-1.7954 4.7247-11.528 1.5119z" fill="#b3e1f9"/>
<path d="m158.61 78.155 11.528 2.0789-13.324 2.6458z" fill="#99c4d6"/>
<path d="m152.06 78.604 0.26727-8.6863 6.6149 2.0045 1.7372 6.8154-2.0727-0.58294z" fill="#9acbe7"/>
<path d="m158.94 71.923-2.2718-14.499-4.8108 0.93544 0.46772 11.559z" fill="#97cce2"/>
<path d="m172.97 197.12 9.2604 0.18899-1.3229-47.625-14.174 11.717z" fill="#55abd0"/>
<path d="m135.74 197.12 8.6935-18.899-10.583-17.576z" fill="#277e92"/>
<path d="m135.74 197.12 8.8824-0.18898-0.18898-18.71z" fill="#207792"/>
<path d="m144.43 178.22-0.94494-51.405-9.6384 33.829z" fill="#227a8e"/>
<path d="m133.85 160.65v-53.106l9.6384 19.277z" fill="#20798b"/>
<path d="m133.85 107.54 8.8824-1.3229 0.75596 20.6z" fill="#409bb4"/>
<path d="m144.62 196.93 22.112-35.53-23.246-34.585z" fill="#287b99"/>
<path d="m144.62 196.93 28.348 0.18898-6.2366-35.719z" fill="#3a96ba"/>
<path d="m180.91 149.69-0.75596-21.734-36.664-1.1339 23.246 34.585z" fill="#58afd4"/>
<path d="m143.49 126.82-0.75596-20.6 21.923-0.94494 7.1816 22.49z" fill="#3089ac"/>
<path d="m180.15 127.95-0.75595-20.789-14.741-1.8899 7.1816 22.49z" fill="#5babcf"/>
<path d="m133.85 107.54-0.18899-16.631 8.5045 2.6458 10.394 1.7009-9.8274 10.961z" fill="#8abfde"/>
<path d="m142.73 106.22 21.923-0.94494 5.1027-11.339-8.1265 1.3229h-9.0714z" fill="#88bfe0"/>
<path d="m164.66 105.27 14.741 1.8899-0.18899-16.82-4.7247 2.4568-4.7247 1.1339z" fill="#b1d9f7"/>
<path d="m133.66 90.912 6.4256-3.3073 7.3705-0.66146 7.3705-0.66146-2.2679 8.9769-10.394-1.7009z" fill="#87c3e0"/>
<path d="m154.83 86.282 14.552 0.66146 9.8274 3.4018-4.7247 2.4568-4.7247 1.1339-8.1265 1.3229h-9.0714z" fill="#abd8f3"/>
<path d="m140.28 88.077 0.47247-6.6146 5.1027-2.1734-0.56697 5.1027z" fill="#c0e1f3"/>
<path d="m140.28 88.077 5.0082-3.6853 11.528-1.5119-1.7954 3.8742-12.095 0.75596z" fill="#addaef"/>
<path d="m156.81 82.88 13.324-2.6458 1.5119 0.94494 0.75595 6.8981-3.0238-1.1339-14.363-0.18899l1.7954-3.8742z" fill="#c4e9fe"/>
<path d="m145.85 79.289 8.3155-1.1339h4.4412l-1.7954 4.7247-11.528 1.5119z" fill="#b3e1f9"/>
<path d="m158.61 78.155 11.528 2.0789-13.324 2.6458z" fill="#99c4d6"/>
<path d="m152.06 78.604 0.26727-8.6863 6.6149 2.0045 1.7372 6.8154-2.0727-0.58294z" fill="#9acbe7"/>
<path d="m158.94 71.923-2.2718-14.499-4.8108 0.93544 0.46772 11.559z" fill="#97cce2"/>
<path d="m172.97 197.12 9.2604 0.18899-1.3229-47.625-14.174 11.717z" fill="#55abd0"/>
<path d="m135.74 197.12 8.6935-18.899-10.583-17.576z" fill="#277e92"/>
<path d="m135.74 197.12 8.8824-0.18898-0.18898-18.71z" fill="#207792"/>
<path d="m144.43 178.22-0.94494-51.405-9.6384 33.829z" fill="#227a8e"/>
<path d="m133.85 160.65v-53.106l9.6384 19.277z" fill="#20798b"/>
<path d="m133.85 107.54 8.8824-1.3229 0.75596 20.6z" fill="#409bb4"/>
<path d="m144.62 196.93 22.112-35.53-23.246-34.585z" fill="#287b99"/>
<path d="m144.62 196.93 28.348 0.18898-6.2366-35.719z" fill="#3a96ba"/>
<path d="m180.91 149.69-0.75596-21.734-36.664-1.1339 23.246 34.585z" fill="#58afd4"/>
<path d="m143.49 126.82-0.75596-20.6 21.923-0.94494 7.1816 22.49z" fill="#3089ac"/>
<path d="m180.15 127.95-0.75595-20.789-14.741-1.8899 7.1816 22.49z" fill="#5babcf"/>
<path d="m133.85 107.54-0.18899-16.631 8.5045 2.6458 10.394 1.7009-9.8274 10.961z" fill="#8abfde"/>
<path d="m142.73 106.22 21.923-0.94494 5.1027-11.339-8.1265 1.3229h-9.0714z" fill="#88bfe0"/>
<path d="m164.66 105.27 14.741 1.8899-0.18899-16.82-4.7247 2.4568-4.7247 1.1339z" fill="#b1d9f7"/>
<path d="m133.66 90.912 6.4256-3.3073 7.3705-0.66146 7.3705-0.66146-2.2679 8.9769-10.394-1.7009z" fill="#87c3e0"/>
<path d="m154.83 86.282 14.552 0.66146 9.8274 3.4018-4.7247 2.4568-4.7247 1.1339-8.1265 1.3229h-9.0714z" fill="#abd8f3"/>
<path d="m140.28 88.077 0.47247-6.6146 5.1027-2.1734-0.56697 5.1027z" fill="#c0e1f3"/>
<path d="m140.28 88.077 5.0082-3.6853 11.528-1.5119-1.7954 3.8742-12.095 0.75596z" fill="#addaef"/>
<path d="m156.81 82.88 13.324-2.6458 1.5119 0.94494 0.75595 6.8981-3.0238-1.1339-14.363-0.18899l1.7954-3.8742z" fill="#c4e9fe"/>
<path d="m145.85 79.289 8.3155-1.1339h4.4412l-1.7954 4.7247-11.528 1.5119z" fill="#b3e1f9"/>
<path d="m158.61 78.155 11.528 2.0789-13.324 2.6458z" fill="#99c4d6"/>
<path d="m152.06 78.604 0.26727-8.6863 6.6149 2.0045 1.7372 6.8154-2.0727-0.58294z" fill="#9acbe7"/>
<path d="m158.94 71.923-2.2718-14.499-4.8108 0.93544 0.46772 11.559z" fill="#97cce2"/>
</g>
<g transform="matrix(.61737 0 0 .61737 -197.84 39.471)">
<path d="m190.17 90.061-0.28348-6.4256 6.5201-2.3624 0.37798 7.9375z" fill="#cdd8fb"/>
<path d="m188.81 196.87 11.225-17.907-2.6727-45.436-11.225 20.58z" fill="#3c4e98"/>
<path d="m186.14 154.11-1.3363-43.832 11.493-1.0691 1.0691 24.322z" fill="#394b98"/>
<path d="m188.81 196.87 12.294-0.53454-1.0691-17.373z" fill="#3c4184"/>
<path d="m201.11 196.34 34.21 0.80181-15.234-36.081z" fill="#7173bf"/>
<path d="m235.32 197.14-4.009-64.412-11.225 28.331z" fill="#8985d8"/>
<path d="m220.08 161.06-22.718-27.529 3.7418 62.808z" fill="#5e5da7"/>
<path d="m231.31 132.73-33.943 0.8018 22.718 27.529z" fill="#7171c4"/>
<path d="m231.31 132.73-33.943 0.8018 17.64-24.589 14.433 0.80181z" fill="#6869bb"/>
<path d="m215 108.94-18.709 0.26727 1.0691 24.322z" fill="#494b92"/>
<path d="m184.8 110.28-0.68038-18.041 7.3705 3.4018 9.4494 0.75595-4.647 12.814z" fill="#a6bdee"/>
<path d="m200.94 96.392 14.062 12.547-18.709 0.26727z" fill="#a1afe1"/>
<path d="m200.94 96.392s8.599 0.0945 8.9769 0.0945 9.8274-1.3229 9.8274-1.3229l-4.7424 13.775z" fill="#a2b4e5"/>
<path d="m219.75 95.164 9.0714-3.2128 0.6187 17.79-14.433-0.8018z" fill="#b9c3f1"/>
<path d="m228.82 91.951-9.0714 3.2128-12.379 1.4174 9.8274-8.5045 8.9769 1.2284z" fill="#cdd5fa"/>
<path d="m217.19 88.077s-14.269 0.18899-14.647 0.18899c-0.37797 0-1.6064 8.1265-1.6064 8.1265l6.4256 0.18899z" fill="#c1cbef"/>
<path d="m202.36 88.266-14.269 2.0789-3.9688 1.8899 7.3705 3.4018 9.4494 0.75595z" fill="#adb9ea"/>
<path d="m196.78 89.211 8.599-8.6934 5.7641-0.37798 6.0476 7.9375-14.836 0.18899z" fill="#d1d9fa"/>
<path d="m196.78 89.211-0.37798-7.9375 8.9769-0.75595z" fill="#d4defe"/>
<path d="m211.15 80.139 9.5439 1.5119 0.66146 6.9926-4.1577-0.56697z" fill="#e3eafc"/>
<path d="m200.75 81.084 0.28348-9.9219 6.4256 0.37797 2.1964 8.6675z" fill="#b5cbf0"/>
<path d="m201.04 71.163-0.53198-8.1266 4.9445-1.47 2.0131 9.9745z" fill="#b5c7ea"/>
<path d="m190.17 90.061-0.28348-6.4256 6.5201-2.3624 0.37798 7.9375z" fill="#cdd8fb"/>
<path d="m188.81 196.87 11.225-17.907-2.6727-45.436-11.225 20.58z" fill="#3c4e98"/>
<path d="m186.14 154.11-1.3363-43.832 11.493-1.0691 1.0691 24.322z" fill="#394b98"/>
<path d="m188.81 196.87 12.294-0.53454-1.0691-17.373z" fill="#3c4184"/>
<path d="m201.11 196.34 34.21 0.80181-15.234-36.081z" fill="#7173bf"/>
<path d="m235.32 197.14-4.009-64.412-11.225 28.331z" fill="#8985d8"/>
<path d="m220.08 161.06-22.718-27.529 3.7418 62.808z" fill="#5e5da7"/>
<path d="m231.31 132.73-33.943 0.8018 22.718 27.529z" fill="#7171c4"/>
<path d="m231.31 132.73-33.943 0.8018 17.64-24.589 14.433 0.80181z" fill="#6869bb"/>
<path d="m215 108.94-18.709 0.26727 1.0691 24.322z" fill="#494b92"/>
<path d="m184.8 110.28-0.68038-18.041 7.3705 3.4018 9.4494 0.75595-4.647 12.814z" fill="#a6bdee"/>
<path d="m200.94 96.392 14.062 12.547-18.709 0.26727z" fill="#a1afe1"/>
<path d="m200.94 96.392s8.599 0.0945 8.9769 0.0945 9.8274-1.3229 9.8274-1.3229l-4.7424 13.775z" fill="#a2b4e5"/>
<path d="m219.75 95.164 9.0714-3.2128 0.6187 17.79-14.433-0.8018z" fill="#b9c3f1"/>
<path d="m228.82 91.951-9.0714 3.2128-12.379 1.4174 9.8274-8.5045 8.9769 1.2284z" fill="#cdd5fa"/>
<path d="m217.19 88.077s-14.269 0.18899-14.647 0.18899c-0.37797 0-1.6064 8.1265-1.6064 8.1265l6.4256 0.18899z" fill="#c1cbef"/>
<path d="m202.36 88.266-14.269 2.0789-3.9688 1.8899 7.3705 3.4018 9.4494 0.75595z" fill="#adb9ea"/>
<path d="m196.78 89.211 8.599-8.6934 5.7641-0.37798 6.0476 7.9375-14.836 0.18899z" fill="#d1d9fa"/>
<path d="m196.78 89.211-0.37798-7.9375 8.9769-0.75595z" fill="#d4defe"/>
<path d="m211.15 80.139 9.5439 1.5119 0.66146 6.9926-4.1577-0.56697z" fill="#e3eafc"/>
<path d="m200.75 81.084 0.28348-9.9219 6.4256 0.37797 2.1964 8.6675z" fill="#b5cbf0"/>
<path d="m201.04 71.163-0.53198-8.1266 4.9445-1.47 2.0131 9.9745z" fill="#b5c7ea"/>
<path d="m190.17 90.061-0.28348-6.4256 6.5201-2.3624 0.37798 7.9375z" fill="#cdd8fb"/>
<path d="m188.81 196.87 11.225-17.907-2.6727-45.436-11.225 20.58z" fill="#3c4e98"/>
<path d="m186.14 154.11-1.3363-43.832 11.493-1.0691 1.0691 24.322z" fill="#394b98"/>
<path d="m188.81 196.87 12.294-0.53454-1.0691-17.373z" fill="#3c4184"/>
<path d="m201.11 196.34 34.21 0.80181-15.234-36.081z" fill="#7173bf"/>
<path d="m235.32 197.14-4.009-64.412-11.225 28.331z" fill="#8985d8"/>
<path d="m220.08 161.06-22.718-27.529 3.7418 62.808z" fill="#5e5da7"/>
<path d="m231.31 132.73-33.943 0.8018 22.718 27.529z" fill="#7171c4"/>
<path d="m231.31 132.73-33.943 0.8018 17.64-24.589 14.433 0.80181z" fill="#6869bb"/>
<path d="m215 108.94-18.709 0.26727 1.0691 24.322z" fill="#494b92"/>
<path d="m184.8 110.28-0.68038-18.041 7.3705 3.4018 9.4494 0.75595-4.647 12.814z" fill="#a6bdee"/>
<path d="m200.94 96.392 14.062 12.547-18.709 0.26727z" fill="#a1afe1"/>
<path d="m200.94 96.392s8.599 0.0945 8.9769 0.0945 9.8274-1.3229 9.8274-1.3229l-4.7424 13.775z" fill="#a2b4e5"/>
<path d="m219.75 95.164 9.0714-3.2128 0.6187 17.79-14.433-0.8018z" fill="#b9c3f1"/>
<path d="m228.82 91.951-9.0714 3.2128-12.379 1.4174 9.8274-8.5045 8.9769 1.2284z" fill="#cdd5fa"/>
<path d="m217.19 88.077s-14.269 0.18899-14.647 0.18899c-0.37797 0-1.6064 8.1265-1.6064 8.1265l6.4256 0.18899z" fill="#c1cbef"/>
<path d="m202.36 88.266-14.269 2.0789-3.9688 1.8899 7.3705 3.4018 9.4494 0.75595z" fill="#adb9ea"/>
<path d="m196.78 89.211 8.599-8.6934 5.7641-0.37798 6.0476 7.9375-14.836 0.18899z" fill="#d1d9fa"/>
<path d="m196.78 89.211-0.37798-7.9375 8.9769-0.75595z" fill="#d4defe"/>
<path d="m211.15 80.139 9.5439 1.5119 0.66146 6.9926-4.1577-0.56697z" fill="#e3eafc"/>
<path d="m200.75 81.084 0.28348-9.9219 6.4256 0.37797 2.1964 8.6675z" fill="#b5cbf0"/>
<path d="m201.04 71.163-0.53198-8.1266 4.9445-1.47 2.0131 9.9745z" fill="#b5c7ea"/>
</g>
<g transform="matrix(.61737 0 0 .61737 -197.84 39.247)">
<path d="m241.46 197.67-2.5391-34.344 12.829-12.829 2.4054 47.841z" fill="#8f4281"/>
<path d="m238.92 163.33-1.47-33.409 12.963-3.7418 1.3364 24.322z" fill="#874080"/>
<path d="m237.45 129.92l-0.53454-14.833 12.829-1.7372 0.66817 12.829z" fill="#a65198"/>
<path d="m249.75 113.35 16.303-0.40091 10.023 26.192-24.322 11.359z" fill="#9c4782"/>
<path d="m266.05 112.95 16.704 1.3364 2.0045 28.731-8.6863-3.8754z" fill="#d282bd"/>
<path d="m254.16 198.34 20.738-0.1795-23.143-47.662z" fill="#a04783"/>
<path d="m274.9 198.16 12.507 0.18987-0.0945-17.387-24.663-7.843z" fill="#c46fab"/>
<path d="m287.31 180.96-1.6064-24.474-23.057 16.631z" fill="#c775af"/>
<path d="m285.7 156.49-0.94192-13.474-8.6863-3.8754-13.428 33.981z" fill="#c671ad"/>
<path d="m262.65 173.12-10.893-22.622 24.322-11.359z" fill="#a9518e"/>
<path d="m236.92 115.09-0.63721-19.639 1.7009-0.85045 2.4568 3.1183 7.7485 0.56696z" fill="#ccb2dd"/>
<path d="m236.92 115.09 11.269-16.804 4.5357 1.0394 4.4412-0.56696 8.8864 14.194-16.303 0.40091z" fill="#c8acdb"/>
<path d="m257.17 98.755 8.5045-1.6064 10.772 16.631-10.39-0.83081z" fill="#b8a5cd"/>
<path d="m270.49 104.52 11.434-5.1027 0.83332 14.869-6.314-0.50554z" fill="#d3c1e4"/>
<path d="m265.67 97.148 15.78-3.3073 0.47247 5.5752-11.434 5.1027z" fill="#c9c1e6"/>
<path d="m281.45 93.841-15.78 3.3073-5.4807-7.087 17.387 1.0394z" fill="#dfcbe6"/>
<path d="m260.19 90.061-11.15 1.0394-0.85044 7.1816 4.5357 1.0394 4.4412-0.56696 8.5045-1.6064z" fill="#c9aed1"/>
<path d="m249.04 91.101-11.056 3.4963 2.4568 3.1183 7.7485 0.56696z" fill="#ccb9de"/>
<path d="m242.9 93.274 0.0945-7.276 4.1577-2.0789 6.8036-0.94494-4.9137 8.1265z" fill="#e4d3ee"/>
<path d="m253.95 82.974 8.41-0.85044-4.9137 8.221-8.41 0.75595z" fill="#decbe4"/>
<path d="m262.36 82.124 8.41 1.2284 0.0945 7.3705-10.678-0.66145-2.7403 0.28348z" fill="#e7d2ec"/>
<path d="m270.77 83.352 2.8348 0.94494 0.56696 6.7091-3.3073-0.28349z" fill="#e8daf2"/>
<path d="m262.36 82.124-1.8899-11.717-5.9531 7.3705-0.56696 5.1972z" fill="#cbc7e1"/>
<path d="m254.52 77.777 0.66146-13.418 4.9137-0.28348 0.37798 6.3311z" fill="#c6bbd0"/>
<path d="m241.46 197.67-2.5391-34.344 12.829-12.829 2.4054 47.841z" fill="#8f4281"/>
<path d="m238.92 163.33-1.47-33.409 12.963-3.7418 1.3364 24.322z" fill="#874080"/>
<path d="m237.45 129.92l-0.53454-14.833 12.829-1.7372 0.66817 12.829z" fill="#a65198"/>
<path d="m249.75 113.35 16.303-0.40091 10.023 26.192-24.322 11.359z" fill="#9c4782"/>
<path d="m266.05 112.95 16.704 1.3364 2.0045 28.731-8.6863-3.8754z" fill="#d282bd"/>
<path d="m254.16 198.34 20.738-0.1795-23.143-47.662z" fill="#a04783"/>
<path d="m274.9 198.16 12.507 0.18987-0.0945-17.387-24.663-7.843z" fill="#c46fab"/>
<path d="m287.31 180.96-1.6064-24.474-23.057 16.631z" fill="#c775af"/>
<path d="m285.7 156.49-0.94192-13.474-8.6863-3.8754-13.428 33.981z" fill="#c671ad"/>
<path d="m262.65 173.12-10.893-22.622 24.322-11.359z" fill="#a9518e"/>
<path d="m236.92 115.09-0.63721-19.639 1.7009-0.85045 2.4568 3.1183 7.7485 0.56696z" fill="#ccb2dd"/>
<path d="m236.92 115.09 11.269-16.804 4.5357 1.0394 4.4412-0.56696 8.8864 14.194-16.303 0.40091z" fill="#c8acdb"/>
<path d="m257.17 98.755 8.5045-1.6064 10.772 16.631-10.39-0.83081z" fill="#b8a5cd"/>
<path d="m270.49 104.52 11.434-5.1027 0.83332 14.869-6.314-0.50554z" fill="#d3c1e4"/>
<path d="m265.67 97.148 15.78-3.3073 0.47247 5.5752-11.434 5.1027z" fill="#c9c1e6"/>
<path d="m281.45 93.841-15.78 3.3073-5.4807-7.087 17.387 1.0394z" fill="#dfcbe6"/>
<path d="m260.19 90.061-11.15 1.0394-0.85044 7.1816 4.5357 1.0394 4.4412-0.56696 8.5045-1.6064z" fill="#c9aed1"/>
<path d="m249.04 91.101-11.056 3.4963 2.4568 3.1183 7.7485 0.56696z" fill="#ccb9de"/>
<path d="m242.9 93.274 0.0945-7.276 4.1577-2.0789 6.8036-0.94494-4.9137 8.1265z" fill="#e4d3ee"/>
<path d="m253.95 82.974 8.41-0.85044-4.9137 8.221-8.41 0.75595z" fill="#decbe4"/>
<path d="m262.36 82.124 8.41 1.2284 0.0945 7.3705-10.678-0.66145-2.7403 0.28348z" fill="#e7d2ec"/>
<path d="m270.77 83.352 2.8348 0.94494 0.56696 6.7091-3.3073-0.28349z" fill="#e8daf2"/>
<path d="m262.36 82.124-1.8899-11.717-5.9531 7.3705-0.56696 5.1972z" fill="#cbc7e1"/>
<path d="m254.52 77.777 0.66146-13.418 4.9137-0.28348 0.37798 6.3311z" fill="#c6bbd0"/>
<path d="m241.46 197.67-2.5391-34.344 12.829-12.829 2.4054 47.841z" fill="#8f4281"/>
<path d="m238.92 163.33-1.47-33.409 12.963-3.7418 1.3364 24.322z" fill="#874080"/>
<path d="m237.45 129.92l-0.53454-14.833 12.829-1.7372 0.66817 12.829z" fill="#a65198"/>
<path d="m249.75 113.35 16.303-0.40091 10.023 26.192-24.322 11.359z" fill="#9c4782"/>
<path d="m266.05 112.95 16.704 1.3364 2.0045 28.731-8.6863-3.8754z" fill="#d282bd"/>
<path d="m254.16 198.34 20.738-0.1795-23.143-47.662z" fill="#a04783"/>
<path d="m274.9 198.16 12.507 0.18987-0.0945-17.387-24.663-7.843z" fill="#c46fab"/>
<path d="m287.31 180.96-1.6064-24.474-23.057 16.631z" fill="#c775af"/>
<path d="m285.7 156.49-0.94192-13.474-8.6863-3.8754-13.428 33.981z" fill="#c671ad"/>
<path d="m262.65 173.12-10.893-22.622 24.322-11.359z" fill="#a9518e"/>
<path d="m236.92 115.09-0.63721-19.639 1.7009-0.85045 2.4568 3.1183 7.7485 0.56696z" fill="#ccb2dd"/>
<path d="m236.92 115.09 11.269-16.804 4.5357 1.0394 4.4412-0.56696 8.8864 14.194-16.303 0.40091z" fill="#c8acdb"/>
<path d="m257.17 98.755 8.5045-1.6064 10.772 16.631-10.39-0.83081z" fill="#b8a5cd"/>
<path d="m270.49 104.52 11.434-5.1027 0.83332 14.869-6.314-0.50554z" fill="#d3c1e4"/>
<path d="m265.67 97.148 15.78-3.3073 0.47247 5.5752-11.434 5.1027z" fill="#c9c1e6"/>
<path d="m281.45 93.841-15.78 3.3073-5.4807-7.087 17.387 1.0394z" fill="#dfcbe6"/>
<path d="m260.19 90.061-11.15 1.0394-0.85044 7.1816 4.5357 1.0394 4.4412-0.56696 8.5045-1.6064z" fill="#c9aed1"/>
<path d="m249.04 91.101-11.056 3.4963 2.4568 3.1183 7.7485 0.56696z" fill="#ccb9de"/>
<path d="m242.9 93.274 0.0945-7.276 4.1577-2.0789 6.8036-0.94494-4.9137 8.1265z" fill="#e4d3ee"/>
<path d="m253.95 82.974 8.41-0.85044-4.9137 8.221-8.41 0.75595z" fill="#decbe4"/>
<path d="m262.36 82.124 8.41 1.2284 0.0945 7.3705-10.678-0.66145-2.7403 0.28348z" fill="#e7d2ec"/>
<path d="m270.77 83.352 2.8348 0.94494 0.56696 6.7091-3.3073-0.28349z" fill="#e8daf2"/>
<path d="m262.36 82.124-1.8899-11.717-5.9531 7.3705-0.56696 5.1972z" fill="#cbc7e1"/>
<path d="m254.52 77.777 0.66146-13.418 4.9137-0.28348 0.37798 6.3311z" fill="#c6bbd0"/>
</g>
</g>
</g>
<g transform="matrix(.28224 0 0 .28224 115.58 75.852)" stroke-width="3.5431">
<g transform="translate(-844.84 83.034)">
<path d="m-193.52-61.321 1e-5 120.2 136.83-120.95z" fill="#d3d3d3" fill-opacity=".89501"/>
<path d="m-56.696-62.077 44.601 154.97-182.94 139.1 1.5119-173.11z" fill="#d3d3d3" fill-opacity=".66993"/>
<path d="m-12.095 92.893 126.24 20.411 1.5119-174.62-172.36-0.75595z" fill="#d2d2d2" fill-opacity=".30112"/>
<path d="m-87.69 149.59 67.28 46.113 134.56-82.399-126.24-20.411z" fill="#d5d5d5" fill-opacity=".38131"/>
<path d="m-87.69 149.59 67.28 46.113-43.845 85.423-130.78-49.137z" fill="#d4d4d4" fill-opacity=".61877"/>
<path d="m-64.256 281.12-129.27 90.714-1.5119-139.85z" fill="#d2d2d2" fill-opacity=".86569"/>
<path d="m-64.256 281.12 32.506 90.714-161.77-2e-5z" fill="#d3d3d3" fill-opacity=".65784"/>
<path d="m-20.411 195.7 91.47 77.863-102.81 98.274-32.506-90.714z" fill="#d4d4d4" fill-opacity=".40343"/>
<path d="m71.06 273.57 43.845-34.018 0.75593 132.29-147.41 2e-5z" fill="#d5d5d5" fill-opacity=".15637"/>
<path d="m71.06 273.57-91.47-77.863 134.56-82.399 0.75595 126.24z" fill="#d5d5d5" fill-opacity=".2029"/>
<path d="m-193.52-61.321 1e-5 120.2 136.83-120.95z" fill="#d3d3d3" fill-opacity=".89501"/>
<path d="m-56.696-62.077 44.601 154.97-182.94 139.1 1.5119-173.11z" fill="#d3d3d3" fill-opacity=".66993"/>
<path d="m-12.095 92.893 126.24 20.411 1.5119-174.62-172.36-0.75595z" fill="#d2d2d2" fill-opacity=".30112"/>
<path d="m-87.69 149.59 67.28 46.113 134.56-82.399-126.24-20.411z" fill="#d5d5d5" fill-opacity=".38131"/>
<path d="m-87.69 149.59 67.28 46.113-43.845 85.423-130.78-49.137z" fill="#d4d4d4" fill-opacity=".61877"/>
<path d="m-64.256 281.12-129.27 90.714-1.5119-139.85z" fill="#d2d2d2" fill-opacity=".86569"/>
<path d="m-64.256 281.12 32.506 90.714-161.77-2e-5z" fill="#d3d3d3" fill-opacity=".65784"/>
<path d="m-20.411 195.7 91.47 77.863-102.81 98.274-32.506-90.714z" fill="#d4d4d4" fill-opacity=".40343"/>
<path d="m71.06 273.57 43.845-34.018 0.75593 132.29-147.41 2e-5z" fill="#d5d5d5" fill-opacity=".15637"/>
<path d="m71.06 273.57-91.47-77.863 134.56-82.399 0.75595 126.24z" fill="#d5d5d5" fill-opacity=".2029"/>
</g>
<g transform="translate(-291.86 -17.463)">
<path d="m-687.82 218.58 1.2267 84.658-40.542-41.77z" fill="#36e536" fill-opacity=".87947"/>
<path d="m-686.59 303.24 26.836 26.269 34.453-47.418z" fill="#1bd11b" fill-opacity=".93843"/>
<path d="m-686.59 303.24-1.2267-84.658 62.516 63.509z" fill="#19d019" fill-opacity=".94361"/>
<path d="m-659.76 329.51 35.84 36.899 53.552-58.822z" fill="#26d926" fill-opacity=".91396"/>
<path d="m-659.76 329.51 34.453-47.418 83.665-43.674-28.726 69.17z" fill="#11ca11" fill-opacity=".96066"/>
<path d="m-541.64 238.41 8.6935-57.074-92.358 100.75z" fill="#46f146" fill-opacity=".84192"/>
<path d="m-541.64 238.41 57.452-23.435-48.759-33.64z" fill="#51f951" fill-opacity=".81785"/>
<path d="m-541.64 238.41-28.726 69.17 86.179-92.604z" fill="#3feb3f" fill-opacity=".85882"/>
<path d="m-532.95 181.34 34.051-36.988 40.702 41.429-25.994 29.199z" fill="#59ff59" fill-opacity=".8"/>
<path d="m-687.82 218.58 1.2267 84.658-40.542-41.77z" fill="#36e536" fill-opacity=".87947"/>
<path d="m-686.59 303.24 26.836 26.269 34.453-47.418z" fill="#1bd11b" fill-opacity=".93843"/>
<path d="m-686.59 303.24-1.2267-84.658 62.516 63.509z" fill="#19d019" fill-opacity=".94361"/>
<path d="m-659.76 329.51 35.84 36.899 53.552-58.822z" fill="#26d926" fill-opacity=".91396"/>
<path d="m-659.76 329.51 34.453-47.418 83.665-43.674-28.726 69.17z" fill="#11ca11" fill-opacity=".96066"/>
<path d="m-541.64 238.41 8.6935-57.074-92.358 100.75z" fill="#46f146" fill-opacity=".84192"/>
<path d="m-541.64 238.41 57.452-23.435-48.759-33.64z" fill="#51f951" fill-opacity=".81785"/>
<path d="m-541.64 238.41-28.726 69.17 86.179-92.604z" fill="#3feb3f" fill-opacity=".85882"/>
<path d="m-532.95 181.34 34.051-36.988 40.702 41.429-25.994 29.199z" fill="#59ff59" fill-opacity=".8"/>
</g>
</g>
</g>
</svg>
